<svg width="100" height="100" fill="none" xmlns="http://www.w3.org/2000/svg"><path fill-rule="evenodd" clip-rule="evenodd" d="M12.136 42.64h24.263c1.87-3.173 4.52-5.823 7.669-7.74h.07v-7.007h23.52V34.9h.046c2.986 1.883 5.53 4.683 7.344 7.74H91.94v22.996H75.049c-3.916 6.577-11.11 10.993-19.325 10.993-8.216 0-15.41-4.416-19.325-10.993h-4.195l-4.311-5.81-4.114 5.81H12.136V42.64zm16.772 50.37a6.85 6.85 0 0 0 6.85-6.85c0-3.785-6.85-14.17-6.85-14.17s-6.851 10.385-6.851 14.17a6.85 6.85 0 0 0 6.85 6.85z" fill="#B5DCFF"/><path fill-rule="evenodd" clip-rule="evenodd" d="M98.578 36.475h-24.63c-1.825-2.867-4.188-5.353-6.764-7.114v-6.209c0-.785-.637-1.422-1.422-1.422H61.11v-4.911h7.28a4.918 4.918 0 0 0 4.912-4.916A4.918 4.918 0 0 0 68.39 6.99H39.607a4.918 4.918 0 0 0-4.912 4.916 4.918 4.918 0 0 0 4.912 4.913h7.279v4.911h-4.643c-.785 0-1.422.637-1.422 1.422v6.178a23.948 23.948 0 0 0-7.112 7.145H12.271v-2.587c0-.785-.637-1.422-1.422-1.422H1.422A1.421 1.421 0 0 0 0 33.887v31.017c0 .785.637 1.422 1.422 1.422h9.426c.785 0 1.422-.637 1.422-1.422v-2.587h9.612c.461 0 .895-.224 1.161-.6l2.979-4.209 3.143 4.234a1.42 1.42 0 0 0 1.142.575h3.403c4.375 6.801 12.007 10.993 20.116 10.993 8.108 0 15.741-4.192 20.116-10.993h24.634c.785 0 1.422-.637 1.422-1.422V37.897a1.42 1.42 0 0 0-1.42-1.422zM37.54 11.902a2.07 2.07 0 0 1 2.067-2.068h28.782a2.07 2.07 0 0 1 0 4.14H39.607a2.07 2.07 0 0 1-2.067-2.072zm12.19 4.916h8.534v4.911H49.73v-4.911zM9.426 63.482H2.845V35.31h6.581v28.172zm63.726-4.01c-.501 0-.966.264-1.222.695-3.782 6.353-10.719 10.298-18.102 10.298-7.384 0-14.321-3.946-18.102-10.298a1.423 1.423 0 0 0-1.222-.695h-3.479l-3.886-5.235a1.413 1.413 0 0 0-.364-.329l-1.931-4.773a1.406 1.406 0 0 0-.236-.389l-.008-.009 3.674-4.595-2.222-1.776-3.331 4.165-2.567-3.014-2.165 1.845 4.304 5.054 1.916 4.733-3.06 4.323h-8.876V39.319h22.232c.504 0 .97-.266 1.225-.7 1.687-2.861 4.092-5.315 6.968-7.113.563-.189.969-.721.969-1.348v-5.584h20.675v5.584c0 .55.335 1.028.806 1.264 2.612 1.671 5.018 4.225 6.784 7.201.257.432.721.696 1.223.696h15.822v20.152H73.152v.001zm24.003 0h-5.336V39.319h5.336v20.153zM25.302 68.79c-.725 1.099-7.086 10.86-7.086 14.952 0 4.562 3.712 8.273 8.273 8.273 4.563 0 8.274-3.712 8.274-8.273 0-4.092-6.362-13.853-7.087-14.952-.526-.799-1.848-.799-2.374 0zm1.187 20.38a5.434 5.434 0 0 1-5.428-5.428c0-2.09 2.969-7.56 5.428-11.526 2.46 3.966 5.429 9.436 5.429 11.526a5.434 5.434 0 0 1-5.429 5.428z" fill="#3F27BA"/></svg>